PathFileType	4	(X/Y/Z)	 s10c0303.trc
DataRate	CameraRate	NumFrames	NumMarkers	Units	OrigDataRate	OrigDataStartFrame	OrigNumFrames
200	200	4	50	mm	200	501	2000
Frame#	Time	racr			lacr			c7			jug			rlel			rdr			llel			ldr			s2			lic			ric			lasi			rasi			rpsi			lpsi			rgt			lgt			rth1			rth2			rth3			rth4			rlfc			rmfc			rsh1			rsh2			rsh3			rsh4			rlmal			rmmal			rcal			rtoe			rmt5			lth1			lth2			lth4			lth3			llfc			lmfc			llmal			lmmal			lcal			lmt5			lsh1			lsh2			lsh3			lsh4			ltoe			SBIKE			LBIKE			RBIKE			
		X1	Y1	Z1	X2	Y2	Z2	X3	Y3	Z3	X4	Y4	Z4	X5	Y5	Z5	X6	Y6	Z6	X7	Y7	Z7	X8	Y8	Z8	X9	Y9	Z9	X10	Y10	Z10	X11	Y11	Z11	X12	Y12	Z12	X13	Y13	Z13	X14	Y14	Z14	X15	Y15	Z15	X16	Y16	Z16	X17	Y17	Z17	X18	Y18	Z18	X19	Y19	Z19	X20	Y20	Z20	X21	Y21	Z21	X22	Y22	Z22	X23	Y23	Z23	X24	Y24	Z24	X25	Y25	Z25	X26	Y26	Z26	X27	Y27	Z27	X28	Y28	Z28	X29	Y29	Z29	X30	Y30	Z30	X31	Y31	Z31	X32	Y32	Z32	X33	Y33	Z33	X34	Y34	Z34	X35	Y35	Z35	X36	Y36	Z36	X37	Y37	Z37	X38	Y38	Z38	X39	Y39	Z39	X40	Y40	Z40	X41	Y41	Z41	X42	Y42	Z42	X43	Y43	Z43	X44	Y44	Z44	X45	Y45	Z45	X46	Y46	Z46	X47	Y47	Z47	X48	Y48	Z48	X49	Y49	Z49	X50	Y50	Z50	
501	2.5050	622.297650	1257.723606	49.470441	639.775898	1319.884959	-279.518776	621.111700	1342.194610	-117.985600	599.251588	1201.374751	-138.412895	485.055923	1013.889286	83.031820	641.996849	884.640060	-7.875243	592.447792	1081.103393	-427.065159	672.570691	883.855143	-371.799915	90.100961	1184.909344	-173.509481	254.388327	1202.332877	-336.775734	265.569420	1164.805515	-50.169305	264.792442	1113.992622	-319.043101	276.058336	1086.982995	-67.428187	142.089787	1232.370302	-121.599535	147.594784	1250.152132	-231.744993	179.038266	1075.189322	-3.305109	126.450525	1069.091925	-376.000343	238.130328	939.697348	7.407244	295.729536	875.237471	-15.197666	311.251804	792.194507	-28.658126	326.152224	894.591923	-24.909494	365.114092	700.630413	-55.237350	341.136940	690.943480	-166.530413	311.640478	598.900238	-17.265106	310.974109	510.983394	-30.691942	268.565604	435.518743	-29.795920	336.434708	506.782375	-59.534215	232.213309	340.001135	-41.380195	254.829909	349.097517	-124.417641	177.463811	329.812226	-88.780727	409.455699	255.673987	-81.353552	322.619060	247.140337	-19.391465	202.809476	958.099960	-403.974310	273.590745	907.911035	-397.596232	300.504296	930.540269	-388.135548	310.107900	827.140397	-398.544821	365.481531	729.619171	-391.405080	364.487220	714.222028	-271.451972	36.045901	535.130004	-379.367615	51.968502	522.330149	-300.745147	-20.762095	550.000661	-331.834430	49.694147	385.805722	-392.813860	252.777442	679.313636	-419.328984	200.175755	610.654490	-401.178617	117.051838	577.862011	-394.886555	219.608397	589.929041	-374.990295	118.021440	345.460511	-340.110457	-203.700525	831.254243	-223.697436	-78.176805	82.017411	-423.666908	-102.614035	80.611861	-24.393020	
502	2.5100	625.618762	1258.482091	47.563412	636.023181	1321.850003	-281.922742	620.462198	1342.912939	-119.305184	600.773852	1201.983199	-140.493636	487.840722	1015.435259	86.280170	642.000395	884.208020	-7.410052	590.294245	1081.016447	-426.782176	672.435836	884.244684	-370.811400	89.823593	1182.584152	-173.057280	252.168113	1200.341398	-333.428675	266.021546	1161.491463	-48.734237	265.364422	1112.832207	-317.896825	276.847632	1083.850467	-66.406105	141.581614	1229.345867	-119.340982	147.094902	1247.865044	-229.687695	179.041956	1071.268817	-3.588293	127.646486	1068.161031	-375.488533	237.584374	935.747306	8.492566	294.121263	870.666112	-14.528076	309.037699	787.359716	-28.096677	325.205064	889.562459	-24.258864	361.672531	695.156271	-54.625339	337.289662	685.783514	-165.776888	308.495513	592.992533	-16.834813	308.093797	505.168723	-30.443959	266.008972	429.389540	-29.504573	333.596713	500.976716	-59.293061	229.846930	334.334968	-41.264603	252.556254	343.338069	-124.417235	175.257412	324.668464	-88.783088	406.720861	248.920588	-81.397896	319.838097	240.947066	-19.561425	204.003438	957.279709	-404.312457	275.436973	908.069763	-398.350084	301.977223	930.741071	-388.594893	313.345756	827.992413	-400.516108	370.173088	731.411987	-394.386424	371.257042	715.741482	-274.096226	39.421063	540.879173	-379.674828	55.666196	528.176927	-300.979732	-17.286064	556.159574	-331.926387	52.783586	391.697859	-392.752996	257.191384	682.801384	-421.253762	204.007050	614.658270	-402.709230	120.675015	582.713877	-395.719599	223.543809	593.743758	-376.848743	121.032080	351.279138	-339.946834	-203.713948	831.246533	-223.697832	-78.160025	82.018983	-423.656420	-102.609251	80.606068	-24.385424	
503	2.5150	629.032484	1259.205151	45.295992	632.196456	1323.615440	-284.379112	619.819132	1343.541001	-120.928847	602.361404	1202.518247	-142.925254	490.975856	1016.812729	89.290201	641.973125	883.640257	-6.759344	587.997849	1080.926194	-426.642308	672.346516	884.770808	-370.173206	90.137478	1179.461613	-171.385868	252.155341	1199.313996	-331.674675	266.423071	1158.211680	-47.409632	265.899107	1111.638393	-316.665452	277.571672	1080.770928	-65.379053	141.146171	1226.098829	-117.233447	146.689971	1245.640877	-227.756194	178.883042	1066.922646	-3.256966	129.512670	1067.305700	-375.338839	236.858680	931.616422	9.189150	292.591638	865.875743	-13.852035	306.654843	782.513078	-27.522712	323.794316	884.492709	-23.559350	358.082492	689.630565	-54.018293	333.342894	680.923106	-165.134141	305.043346	587.240064	-16.361870	304.973831	499.345952	-30.195560	263.096952	423.553971	-29.296285	330.477583	495.429544	-58.961430	227.338313	328.846366	-41.058619	249.763286	337.545023	-124.120107	172.845780	319.620084	-88.736188	403.766786	242.242343	-81.598183	316.747962	234.822204	-19.766487	205.463208	956.675781	-404.679735	277.689768	908.435024	-399.771297	303.969583	931.504856	-390.066660	316.687387	828.926133	-402.309406	375.130681	733.948515	-397.535393	378.075405	717.564233	-276.832806	43.027810	546.546825	-379.973808	59.539246	533.859112	-301.358749	-13.518199	562.199285	-331.948624	56.104945	397.605630	-392.767861	261.148160	686.188123	-422.754653	207.757298	618.546793	-403.998399	124.456375	587.692768	-396.576341	227.623930	597.683232	-378.871198	124.281854	357.086545	-339.760171	-203.726743	831.248906	-223.667266	-78.168094	82.011009	-423.659337	-102.625951	80.604589	-24.384615	
504	2.5200	632.657610	1259.879867	42.751468	628.338690	1325.085320	-286.961019	619.251340	1344.056348	-122.886019	600.545580	1202.413620	-141.035179	494.350196	1018.169921	92.180551	641.974406	883.247001	-6.189769	585.483467	1080.829907	-426.739580	672.151948	885.283167	-369.566119	90.678997	1176.228138	-169.993563	252.269043	1198.439529	-330.024147	266.827244	1155.043107	-45.928836	266.726832	1110.682115	-315.808428	278.284129	1077.878798	-64.260447	140.881375	1222.928159	-115.094516	146.313288	1243.427376	-225.827819	178.618106	1062.346013	-2.820274	131.720481	1066.427389	-375.314991	235.865250	927.393256	9.718562	290.872588	861.275555	-13.130778	303.992534	777.660874	-26.904201	322.360630	879.263329	-22.749319	354.255202	683.987574	-53.361660	329.473490	676.123506	-164.347936	301.412751	581.559180	-15.857862	301.627643	493.861125	-29.742341	259.901979	417.964048	-29.069884	326.973740	490.097930	-58.388988	224.679532	323.419912	-41.067754	246.965107	332.027697	-124.172911	170.563989	314.241174	-89.056860	400.579306	235.604917	-81.835927	313.575481	228.827172	-19.854967	207.595223	956.246841	-405.523721	280.234195	909.020196	-401.105465	306.226357	932.327554	-391.411790	320.272553	829.943337	-404.137794	379.864748	736.212557	-399.999733	385.075423	719.459999	-279.207058	46.911812	552.193960	-380.371842	63.674223	539.549833	-301.820311	-9.512523	568.098107	-332.060409	59.617801	403.292679	-392.690342	265.728487	690.033838	-424.720986	211.918118	622.772391	-405.772870	128.348735	592.736032	-397.413030	231.813827	601.662897	-380.828439	127.797652	362.767600	-339.672241	-203.728071	831.259679	-223.657657	-78.172954	82.027883	-423.649498	-102.608018	80.605261	-24.383272	
